<svg xmlns="http://www.w3.org/2000/svg" viewBox="0 0 1600 900" fill="none">
  <defs>
    <linearGradient id="sky-day" x1="800" y1="0" x2="800" y2="900" gradientUnits="userSpaceOnUse">
      <stop offset="0" stop-color="#73C9FF"/>
      <stop offset="0.42" stop-color="#A8E0FF"/>
      <stop offset="0.72" stop-color="#DDF2FF"/>
      <stop offset="1" stop-color="#F6FBFF"/>
    </linearGradient>
    <radialGradient id="sun" cx="0" cy="0" r="1" gradientUnits="userSpaceOnUse" gradientTransform="translate(275 165) rotate(90) scale(96)">
      <stop offset="0" stop-color="#FFF4B0"/>
      <stop offset="0.48" stop-color="#FFD86D"/>
      <stop offset="1" stop-color="#FFD86D" stop-opacity="0"/>
    </radialGradient>
    <linearGradient id="mountain-far" x1="800" y1="310" x2="800" y2="760" gradientUnits="userSpaceOnUse">
      <stop offset="0" stop-color="#93B48A"/>
      <stop offset="1" stop-color="#6B8B69"/>
    </linearGradient>
    <linearGradient id="mountain-mid" x1="800" y1="420" x2="800" y2="840" gradientUnits="userSpaceOnUse">
      <stop offset="0" stop-color="#6F8F6C"/>
      <stop offset="1" stop-color="#4E6C58"/>
    </linearGradient>
    <linearGradient id="mountain-near" x1="800" y1="560" x2="800" y2="900" gradientUnits="userSpaceOnUse">
      <stop offset="0" stop-color="#45665C"/>
      <stop offset="1" stop-color="#314A46"/>
    </linearGradient>
    <linearGradient id="lake" x1="800" y1="620" x2="800" y2="900" gradientUnits="userSpaceOnUse">
      <stop offset="0" stop-color="#7FD0E9" stop-opacity="0.72"/>
      <stop offset="1" stop-color="#DDF4FF" stop-opacity="0"/>
    </linearGradient>
  </defs>

  <rect width="1600" height="900" fill="url(#sky-day)"/>
  <rect width="1600" height="900" fill="url(#sun)"/>

  <g opacity="0.82" fill="#fff">
    <ellipse cx="260" cy="190" rx="72" ry="24"/>
    <ellipse cx="320" cy="188" rx="52" ry="18"/>
    <ellipse cx="1100" cy="148" rx="82" ry="26"/>
    <ellipse cx="1170" cy="146" rx="54" ry="18"/>
    <ellipse cx="1270" cy="212" rx="60" ry="20" opacity="0.84"/>
    <ellipse cx="1320" cy="210" rx="40" ry="14" opacity="0.84"/>
  </g>

  <path d="M0 540C88 495 156 468 238 450C320 431 382 430 462 404C540 378 604 330 676 328C738 326 798 368 862 392C932 418 992 431 1064 417C1146 401 1196 355 1282 344C1384 330 1498 373 1600 434V900H0V540Z" fill="url(#mountain-far)"/>
  <path d="M0 640C108 606 194 598 282 566C360 538 422 486 510 482C580 479 652 528 728 548C820 572 878 560 966 526C1054 492 1118 452 1198 458C1294 465 1390 533 1600 604V900H0V640Z" fill="url(#mountain-mid)"/>
  <path d="M0 736C86 718 186 690 284 676C396 660 514 676 626 654C736 632 812 578 918 572C1026 566 1104 640 1200 674C1312 714 1416 728 1600 706V900H0V736Z" fill="url(#mountain-near)"/>

  <path d="M0 694C180 710 290 696 392 684C492 671 612 648 750 650C876 651 1032 695 1176 710C1328 727 1462 718 1600 696V900H0V694Z" fill="url(#lake)"/>

  <g fill="#274237" opacity="0.9">
    <path d="M126 760L150 692L178 760H126Z"/>
    <rect x="147" y="758" width="8" height="42" rx="2"/>
    <path d="M262 780L292 696L326 780H262Z"/>
    <rect x="289" y="778" width="8" height="46" rx="2"/>
    <path d="M1338 786L1368 700L1400 786H1338Z"/>
    <rect x="1365" y="784" width="8" height="48" rx="2"/>
    <path d="M1468 770L1496 690L1528 770H1468Z"/>
    <rect x="1493" y="768" width="8" height="44" rx="2"/>
  </g>
</svg>
